<?xml version="1.0" encoding="utf-8"?>
<!-- Generator: Adobe Illustrator 23.0.0, SVG Export Plug-In . SVG Version: 6.00 Build 0)  -->
<svg version="1.1" xmlns="http://www.w3.org/2000/svg" xmlns:xlink="http://www.w3.org/1999/xlink" x="0px" y="0px"
	 viewBox="0 0 20 20" enable-background="new 0 0 20 20" xml:space="preserve">
<g id="_x5F_GRID" display="none">
	<g display="inline">
		<g>
			
				<rect x="9" y="-9" transform="matrix(6.123234e-17 -1 1 6.123234e-17 9 11)" opacity="0.2" fill="#FF00FF" width="2" height="20"/>
			
				<rect x="9.5" y="-9.5" transform="matrix(6.123234e-17 -1 1 6.123234e-17 9.5 10.5)" opacity="0.3" fill="#FF00FF" width="1" height="20"/>
		</g>
		<g>
			
				<rect x="9" y="9" transform="matrix(-1.836970e-16 1 -1 -1.836970e-16 29 9)" opacity="0.2" fill="#FF00FF" width="2" height="20"/>
			
				<rect x="9.5" y="9.5" transform="matrix(-1.836970e-16 1 -1 -1.836970e-16 29.5 9.5)" opacity="0.3" fill="#FF00FF" width="1" height="20"/>
		</g>
		<g>
			<rect transform="matrix(-1 -1.224647e-16 1.224647e-16 -1 2 20)" opacity="0.2" fill="#FF00FF" width="2" height="20"/>
			<rect transform="matrix(-1 -1.224647e-16 1.224647e-16 -1 1 20)" opacity="0.3" fill="#FF00FF" width="1" height="20"/>
		</g>
		<g>
			<rect x="18" opacity="0.2" fill="#FF00FF" width="2" height="20"/>
			<rect x="19" opacity="0.3" fill="#FF00FF" width="1" height="20"/>
		</g>
	</g>
</g>
<g id="ICONS">
	<path fill="#FFFFFF" stroke="#979593" stroke-miterlimit="10" d="M14.2929,1.5H6C5.7239,1.5,5.5,1.7239,5.5,2v16
		c0,0.2761,0.2239,0.5,0.5,0.5h12c0.2761,0,0.5-0.2239,0.5-0.5V5.7071c0-0.1326-0.0527-0.2598-0.1464-0.3536l-3.7071-3.7071
		C14.5527,1.5527,14.4255,1.5,14.2929,1.5z"/>
	<g>
		<path fill="#BDBBB8" d="M16.5556,15H9.4444C9.1988,15,9,14.7764,9,14.5S9.1988,14,9.4444,14h7.1111C16.8012,14,17,14.2236,17,14.5
			S16.8012,15,16.5556,15z"/>
		<path fill="#BDBBB8" d="M16.5556,13H9.4444C9.1988,13,9,12.7764,9,12.5S9.1988,12,9.4444,12h7.1111C16.8012,12,17,12.2236,17,12.5
			S16.8012,13,16.5556,13z"/>
		<path fill="#BDBBB8" d="M16.5556,11H9.4444C9.1988,11,9,10.7764,9,10.5S9.1988,10,9.4444,10h7.1111C16.8012,10,17,10.2236,17,10.5
			S16.8012,11,16.5556,11z"/>
		<path fill="#BDBBB8" d="M16.5556,9H9.4444C9.1988,9,9,8.7764,9,8.5S9.1988,8,9.4444,8h7.1111C16.8012,8,17,8.2236,17,8.5
			S16.8012,9,16.5556,9z"/>
	</g>
	<path fill="none" stroke="#979593" stroke-miterlimit="10" d="M14.5,1.5v4c0,0.5523,0.4477,1,1,1h3"/>
	<path fill="#185ABD" d="M2,16h8c0.5523,0,1-0.4477,1-1V7c0-0.5523-0.4477-1-1-1H2C1.4477,6,1,6.4477,1,7v8
		C1,15.5523,1.4477,16,2,16z"/>
	<g>
		<polygon fill="#FFFFFF" points="7.2109,13.936 6,9.4955 4.7939,13.936 3.918,13.936 2.7549,8.0938 3.6406,8.0938 4.4492,11.9201
			5.5234,8.0938 6.3887,8.0938 7.542,12.0104 8.3438,8.0938 9.2285,8.0938 8.085,13.936 		"/>
	</g>
</g>
<g id="CENTERED_x5F_MARGINS" display="none">
</g>
<g id="_x5F_FILE_x5F_CENTER" display="none">
</g>
<g id="_x5F_RIGHT_x5F_MARGIN" display="none" opacity="0.5">
	<g display="inline">
		<rect x="16" fill="#00FFFF" width="4" height="20"/>
	</g>
	<g display="inline">
		<rect x="16" opacity="0.3" fill="#00FFFF" width="4" height="20"/>
	</g>
</g>
<g id="_x5F_THREE_x5F_HEIGHTS" display="none">
	<rect x="10" y="8" display="inline" opacity="0.2" fill="#F7931E" width="10" height="10"/>
</g>
<g id="FOLDER_x5F_INCIDACTORS" display="none">
</g>
</svg>
