<?xml version="1.0" encoding="utf-8"?>
<!-- Generator: Adobe Illustrator 23.0.0, SVG Export Plug-In . SVG Version: 6.00 Build 0)  -->
<svg version="1.1" xmlns="http://www.w3.org/2000/svg" xmlns:xlink="http://www.w3.org/1999/xlink" x="0px" y="0px"
	 viewBox="0 0 20 20" enable-background="new 0 0 20 20" xml:space="preserve">
<g id="_x5F_GRID" display="none">
</g>
<g id="ICONS">
	<path fill="#FFFFFF" stroke="#979593" stroke-linecap="round" stroke-linejoin="bevel" stroke-miterlimit="10" d="M16.5,17.5h-13
		c-0.5523,0-1-0.4477-1-1v-13c0-0.5523,0.4477-1,1-1h13c0.5523,0,1,0.4477,1,1v13C17.5,17.0523,17.0523,17.5,16.5,17.5z"/>
	<g>
		<path fill="none" stroke="#A6CCC3" stroke-miterlimit="10" d="M11.691,10.6568l-0.8781,1.286L9.1264,9.6167
			c-0.3993-0.5507-1.22-0.5507-1.6192,0L5.1174,12.913C4.638,13.5742,5.1104,14.5,5.927,14.5h3.1398h3.6h1.4063
			c0.8037,0,1.2791-0.9001,0.8258-1.5639l-1.5563-2.2793C12.9456,10.0754,12.088,10.0754,11.691,10.6568z"/>
		<circle fill="none" stroke="#FF9810" stroke-miterlimit="10" cx="13.5" cy="6.5" r="1"/>
	</g>
</g>
<g id="CENTERED_x5F_MARGINS" display="none">
	<g display="inline">
		<rect opacity="0.3" fill="#00FFFF" width="20" height="2"/>
		
			<rect x="9" y="9" transform="matrix(-1.836970e-16 1 -1 -1.836970e-16 29 -9)" opacity="0.3" fill="#00FFFF" width="20" height="2"/>
		
			<rect x="-9" y="9" transform="matrix(-1.836970e-16 1 -1 -1.836970e-16 11 9)" opacity="0.3" fill="#00FFFF" width="20" height="2"/>
		<rect y="18" opacity="0.3" fill="#00FFFF" width="20" height="2"/>
	</g>
</g>
<g id="_x5F_FILE_x5F_CENTER" display="none">
</g>
<g id="_x5F_THREE_x5F_HEIGHTS" display="none">
</g>
<g id="FOLDER_x5F_INCIDACTORS" display="none">
</g>
</svg>
