<?xml version="1.0" encoding="utf-8"?>
<!-- Generator: Adobe Illustrator 23.0.0, SVG Export Plug-In . SVG Version: 6.00 Build 0)  -->
<svg version="1.1" xmlns="http://www.w3.org/2000/svg" xmlns:xlink="http://www.w3.org/1999/xlink" x="0px" y="0px"
	 viewBox="0 0 20 20" enable-background="new 0 0 20 20" xml:space="preserve">
<g id="_x5F_GRID" display="none">
	<g display="inline">
		<path fill="#D0D0D0" d="M20,0v20H0V0H20 M21-1h-1H0h-1v1v20v1h1h20h1v-1V0V-1L21-1z"/>
	</g>
	<g display="inline" opacity="0.1">
		<path fill="#FF3A6D" d="M19,1v18H1V1H19 M20,0H0v20h20V0L20,0z"/>
	</g>
</g>
<g id="ICONS">
	<path fill="#FFB900" d="M10,5L8.5858,3.5858C8.2107,3.2107,7.702,3,7.1716,3H1.5C1.2239,3,1,3.2239,1,3.5v13
		C1,16.7761,1.2239,17,1.5,17h17c0.2761,0,0.5-0.2239,0.5-0.5v-11C19,5.2239,18.7761,5,18.5,5H10z"/>
	<path fill="#FFD75E" d="M10,5L8.5858,6.4142C8.2107,6.7893,7.702,7,7.1716,7H1v9.5C1,16.7761,1.2239,17,1.5,17h17
		c0.2761,0,0.5-0.2239,0.5-0.5v-11C19,5.2239,18.7761,5,18.5,5H10z"/>
	<linearGradient id="SVGID_1_" gradientUnits="userSpaceOnUse" x1="10" y1="5" x2="10" y2="17">
		<stop  offset="0" style="stop-color:#FFFFFF;stop-opacity:0"/>
		<stop  offset="1" style="stop-color:#FFD75E;stop-opacity:0.3"/>
	</linearGradient>
	<path fill="url(#SVGID_1_)" d="M10,5L8.5858,6.4142C8.2107,6.7893,7.702,7,7.1716,7H1v9.5C1,16.7761,1.2239,17,1.5,17h17
		c0.2761,0,0.5-0.2239,0.5-0.5v-11C19,5.2239,18.7761,5,18.5,5H10z"/>
	<path fill="#DA7B16" d="M1,16h18v0.5c0,0.2761-0.2239,0.5-0.5,0.5h-17C1.2239,17,1,16.7761,1,16.5V16z"/>
	<g>
		<path fill="#E99E0C" d="M8.75,10h-6.5C2.1119,10,2,10.1119,2,10.25V11h1v2H2v0.75C2,13.8881,2.1119,14,2.25,14h6.5
			C8.8881,14,9,13.8881,9,13.75v-3.5C9,10.1119,8.8881,10,8.75,10z M8,13H6v-2h2V13z"/>
		<path fill="#E99E0C" d="M10.75,13h-0.5C10.1119,13,10,12.8881,10,12.75v-1.5c0-0.1381,0.1119-0.25,0.25-0.25h0.5
			c0.1381,0,0.25,0.1119,0.25,0.25v1.5C11,12.8881,10.8881,13,10.75,13z"/>
		<path fill="#E99E0C" d="M12.75,13h-0.5C12.1119,13,12,12.8881,12,12.75v-1.5c0-0.1381,0.1119-0.25,0.25-0.25h0.5
			c0.1381,0,0.25,0.1119,0.25,0.25v1.5C13,12.8881,12.8881,13,12.75,13z"/>
		<path fill="#E99E0C" d="M14.75,13h-0.5C14.1119,13,14,12.8881,14,12.75v-1.5c0-0.1381,0.1119-0.25,0.25-0.25h0.5
			c0.1381,0,0.25,0.1119,0.25,0.25v1.5C15,12.8881,14.8881,13,14.75,13z"/>
		<path fill="#E99E0C" d="M16.75,13h-0.5C16.1119,13,16,12.8881,16,12.75v-1.5c0-0.1381,0.1119-0.25,0.25-0.25h0.5
			c0.1381,0,0.25,0.1119,0.25,0.25v1.5C17,12.8881,16.8881,13,16.75,13z"/>
		<path fill="#E99E0C" d="M18.75,13h-0.5C18.1119,13,18,12.8881,18,12.75v-1.5c0-0.1381,0.1119-0.25,0.25-0.25h0.5
			c0.1381,0,0.25,0.1119,0.25,0.25v1.5C19,12.8881,18.8881,13,18.75,13z"/>
		<path fill="#E99E0C" d="M1.75,13H1v-2h0.75C1.8881,11,2,11.1119,2,11.25v1.5C2,12.8881,1.8881,13,1.75,13z"/>
	</g>
</g>
<g id="CENTERED_x5F_MARGINS" display="none">
</g>
<g id="_x5F_FILE_x5F_CENTER" display="none">
</g>
<g id="_x5F_THREE_x5F_HEIGHTS" display="none">
</g>
<g id="FOLDER_x5F_INCIDACTORS" display="none">
</g>
</svg>
